<svg width="1104" height="900" viewBox="0 0 1104 900" fill="none" xmlns="http://www.w3.org/2000/svg">
<path d="M1076.09 435.801L1032.97 412.31C1014.03 319.4 968.806 236.307 905.347 170.744C869.586 133.58 828.214 102.376 782.285 77.834V50.4869C782.285 36.1122 754.938 23.1399 710.762 14.0242C669.391 5.25906 613.294 0 551.588 0C529.85 0 508.814 0.701208 488.479 1.75302C391.712 7.71328 320.89 27.3471 320.89 50.1363V77.4834C290.037 93.9618 261.288 113.596 234.642 136.034C152.25 206.155 92.998 302.571 70.2088 412.31L27.0845 435.801C7.45069 446.319 -3.06742 468.407 0.789219 490.144L40.0568 710.674C43.9135 733.113 62.1449 749.942 84.5835 752.746L150.497 760.81C186.259 799.377 231.487 829.529 283.726 851.617C353.847 881.418 436.239 897.195 524.942 899.649C533.707 900 542.823 900 551.588 900C619.254 900 683.765 892.637 742.667 877.561C819.8 857.577 887.116 823.919 937.953 775.536C943.913 769.926 949.874 763.966 955.483 757.655L1017.54 751.695C1040.68 749.591 1059.26 732.411 1063.47 709.271L1102.39 489.793C1106.24 468.407 1095.72 446.319 1076.09 435.801Z" fill="url(#paint0_linear)"/>
<path d="M551.591 779.743C434.49 779.743 338.424 755.552 273.913 709.623C211.155 665.096 180.652 600.234 180.652 511.531C180.652 306.779 347.189 140.242 551.942 140.242C756.694 140.242 923.231 306.779 923.231 511.531C923.231 600.234 892.729 664.745 829.971 709.623C764.758 755.552 668.693 779.743 551.591 779.743Z" fill="white"/>
<path d="M551.59 694.197C478.664 694.197 410.998 651.423 379.093 585.509L437.994 557.461C459.381 601.637 502.856 629.335 551.59 629.335C600.324 629.335 644.149 601.988 665.185 557.461L724.087 585.509C692.182 651.423 624.515 694.197 551.59 694.197Z" fill="#121826"/>
<defs>
<linearGradient id="paint0_linear" x1="284.013" y1="823.378" x2="886.885" y2="167.049" gradientUnits="userSpaceOnUse">
<stop stop-color="#FF79CD"/>
<stop offset="0.5" stop-color="#9935F6"/>
<stop offset="1" stop-color="#2DEAFF"/>
</linearGradient>
</defs>
</svg>
